<mxfile host="Electron" modified="2024-04-28T10:18:15.956Z" agent="Mozilla/5.0 (X11; Linux x86_64) AppleWebKit/537.36 (KHTML, like Gecko) draw.io/24.2.5 Chrome/120.0.6099.109 Electron/28.1.0 Safari/537.36" etag="kBjkDAkJozzYxeNhNO6B" version="24.2.5" type="device">
  <diagram id="C5RBs43oDa-KdzZeNtuy" name="Page-1">
    <mxGraphModel dx="1605" dy="481" grid="1" gridSize="10" guides="1" tooltips="1" connect="1" arrows="1" fold="1" page="1" pageScale="1" pageWidth="827" pageHeight="1169" math="0" shadow="0">
      <root>
        <mxCell id="WIyWlLk6GJQsqaUBKTNV-0" />
        <mxCell id="WIyWlLk6GJQsqaUBKTNV-1" parent="WIyWlLk6GJQsqaUBKTNV-0" />
        <mxCell id="4UrJrqEXT7uLGCO6xylo-0" value="Network" style="swimlane;fontStyle=2;align=center;verticalAlign=top;childLayout=stackLayout;horizontal=1;startSize=26;horizontalStack=0;resizeParent=1;resizeLast=0;collapsible=1;marginBottom=0;rounded=0;shadow=0;strokeWidth=1;" parent="WIyWlLk6GJQsqaUBKTNV-1" vertex="1">
          <mxGeometry x="565" y="80" width="160" height="40" as="geometry">
            <mxRectangle x="230" y="140" width="160" height="26" as="alternateBounds" />
          </mxGeometry>
        </mxCell>
        <mxCell id="4UrJrqEXT7uLGCO6xylo-4" value="" style="line;html=1;strokeWidth=1;align=left;verticalAlign=middle;spacingTop=-1;spacingLeft=3;spacingRight=3;rotatable=0;labelPosition=right;points=[];portConstraint=eastwest;" parent="4UrJrqEXT7uLGCO6xylo-0" vertex="1">
          <mxGeometry y="26" width="160" height="8" as="geometry" />
        </mxCell>
        <mxCell id="4UrJrqEXT7uLGCO6xylo-6" value="Node" style="swimlane;fontStyle=2;align=center;verticalAlign=top;childLayout=stackLayout;horizontal=1;startSize=26;horizontalStack=0;resizeParent=1;resizeLast=0;collapsible=1;marginBottom=0;rounded=0;shadow=0;strokeWidth=1;" parent="WIyWlLk6GJQsqaUBKTNV-1" vertex="1">
          <mxGeometry x="180" y="80" width="160" height="40" as="geometry">
            <mxRectangle x="230" y="140" width="160" height="26" as="alternateBounds" />
          </mxGeometry>
        </mxCell>
        <mxCell id="4UrJrqEXT7uLGCO6xylo-7" value="" style="line;html=1;strokeWidth=1;align=left;verticalAlign=middle;spacingTop=-1;spacingLeft=3;spacingRight=3;rotatable=0;labelPosition=right;points=[];portConstraint=eastwest;" parent="4UrJrqEXT7uLGCO6xylo-6" vertex="1">
          <mxGeometry y="26" width="160" height="8" as="geometry" />
        </mxCell>
        <mxCell id="4UrJrqEXT7uLGCO6xylo-9" value="" style="endArrow=diamondThin;endFill=0;endSize=24;html=1;rounded=0;entryX=0;entryY=0.5;entryDx=0;entryDy=0;exitX=1;exitY=0.5;exitDx=0;exitDy=0;" parent="WIyWlLk6GJQsqaUBKTNV-1" source="4UrJrqEXT7uLGCO6xylo-6" target="4UrJrqEXT7uLGCO6xylo-0" edge="1">
          <mxGeometry width="160" relative="1" as="geometry">
            <mxPoint x="320" y="140" as="sourcePoint" />
            <mxPoint x="480" y="140" as="targetPoint" />
          </mxGeometry>
        </mxCell>
        <mxCell id="4UrJrqEXT7uLGCO6xylo-11" value="QSource" style="swimlane;fontStyle=2;align=center;verticalAlign=top;childLayout=stackLayout;horizontal=1;startSize=26;horizontalStack=0;resizeParent=1;resizeLast=0;collapsible=1;marginBottom=0;rounded=0;shadow=0;strokeWidth=1;" parent="WIyWlLk6GJQsqaUBKTNV-1" vertex="1">
          <mxGeometry x="128" y="180" width="160" height="130" as="geometry">
            <mxRectangle x="230" y="140" width="160" height="26" as="alternateBounds" />
          </mxGeometry>
        </mxCell>
        <mxCell id="4UrJrqEXT7uLGCO6xylo-45" value="name" style="text;align=left;verticalAlign=top;spacingLeft=4;spacingRight=4;overflow=hidden;rotatable=0;points=[[0,0.5],[1,0.5]];portConstraint=eastwest;" parent="4UrJrqEXT7uLGCO6xylo-11" vertex="1">
          <mxGeometry y="26" width="160" height="24" as="geometry" />
        </mxCell>
        <mxCell id="eK2f0mzsQCClxwwo3MAG-6" value="status" style="text;align=left;verticalAlign=top;spacingLeft=4;spacingRight=4;overflow=hidden;rotatable=0;points=[[0,0.5],[1,0.5]];portConstraint=eastwest;" vertex="1" parent="4UrJrqEXT7uLGCO6xylo-11">
          <mxGeometry y="50" width="160" height="20" as="geometry" />
        </mxCell>
        <mxCell id="eK2f0mzsQCClxwwo3MAG-5" value="emission_delay_model" style="text;align=left;verticalAlign=top;spacingLeft=4;spacingRight=4;overflow=hidden;rotatable=0;points=[[0,0.5],[1,0.5]];portConstraint=eastwest;" vertex="1" parent="4UrJrqEXT7uLGCO6xylo-11">
          <mxGeometry y="70" width="160" height="20" as="geometry" />
        </mxCell>
        <mxCell id="4UrJrqEXT7uLGCO6xylo-12" value="" style="line;html=1;strokeWidth=1;align=left;verticalAlign=middle;spacingTop=-1;spacingLeft=3;spacingRight=3;rotatable=0;labelPosition=right;points=[];portConstraint=eastwest;" parent="4UrJrqEXT7uLGCO6xylo-11" vertex="1">
          <mxGeometry y="90" width="160" height="10" as="geometry" />
        </mxCell>
        <mxCell id="eK2f0mzsQCClxwwo3MAG-7" value="trigger" style="text;align=left;verticalAlign=top;spacingLeft=4;spacingRight=4;overflow=hidden;rotatable=0;points=[[0,0.5],[1,0.5]];portConstraint=eastwest;" vertex="1" parent="4UrJrqEXT7uLGCO6xylo-11">
          <mxGeometry y="100" width="160" height="30" as="geometry" />
        </mxCell>
        <mxCell id="4UrJrqEXT7uLGCO6xylo-13" value="QProcessor" style="swimlane;fontStyle=2;align=center;verticalAlign=top;childLayout=stackLayout;horizontal=1;startSize=26;horizontalStack=0;resizeParent=1;resizeLast=0;collapsible=1;marginBottom=0;rounded=0;shadow=0;strokeWidth=1;" parent="WIyWlLk6GJQsqaUBKTNV-1" vertex="1">
          <mxGeometry x="310" y="183" width="150" height="140" as="geometry">
            <mxRectangle x="230" y="140" width="160" height="26" as="alternateBounds" />
          </mxGeometry>
        </mxCell>
        <mxCell id="4UrJrqEXT7uLGCO6xylo-17" value="name" style="text;align=left;verticalAlign=top;spacingLeft=4;spacingRight=4;overflow=hidden;rotatable=0;points=[[0,0.5],[1,0.5]];portConstraint=eastwest;" parent="4UrJrqEXT7uLGCO6xylo-13" vertex="1">
          <mxGeometry y="26" width="150" height="24" as="geometry" />
        </mxCell>
        <mxCell id="4UrJrqEXT7uLGCO6xylo-31" value="num_positions" style="text;align=left;verticalAlign=top;spacingLeft=4;spacingRight=4;overflow=hidden;rotatable=0;points=[[0,0.5],[1,0.5]];portConstraint=eastwest;" parent="4UrJrqEXT7uLGCO6xylo-13" vertex="1">
          <mxGeometry y="50" width="150" height="24" as="geometry" />
        </mxCell>
        <mxCell id="4UrJrqEXT7uLGCO6xylo-33" value="mem_noise_model" style="text;align=left;verticalAlign=top;spacingLeft=4;spacingRight=4;overflow=hidden;rotatable=0;points=[[0,0.5],[1,0.5]];portConstraint=eastwest;" parent="4UrJrqEXT7uLGCO6xylo-13" vertex="1">
          <mxGeometry y="74" width="150" height="24" as="geometry" />
        </mxCell>
        <mxCell id="4UrJrqEXT7uLGCO6xylo-14" value="" style="line;html=1;strokeWidth=1;align=left;verticalAlign=middle;spacingTop=-1;spacingLeft=3;spacingRight=3;rotatable=0;labelPosition=right;points=[];portConstraint=eastwest;" parent="4UrJrqEXT7uLGCO6xylo-13" vertex="1">
          <mxGeometry y="98" width="150" height="12" as="geometry" />
        </mxCell>
        <mxCell id="eK2f0mzsQCClxwwo3MAG-11" value="execute_program" style="text;align=left;verticalAlign=top;spacingLeft=4;spacingRight=4;overflow=hidden;rotatable=0;points=[[0,0.5],[1,0.5]];portConstraint=eastwest;" vertex="1" parent="4UrJrqEXT7uLGCO6xylo-13">
          <mxGeometry y="110" width="150" height="30" as="geometry" />
        </mxCell>
        <mxCell id="4UrJrqEXT7uLGCO6xylo-15" value="" style="endArrow=diamondThin;endFill=1;endSize=24;html=1;rounded=0;entryX=0.25;entryY=1;entryDx=0;entryDy=0;exitX=0.5;exitY=0;exitDx=0;exitDy=0;" parent="WIyWlLk6GJQsqaUBKTNV-1" source="4UrJrqEXT7uLGCO6xylo-11" target="4UrJrqEXT7uLGCO6xylo-6" edge="1">
          <mxGeometry width="160" relative="1" as="geometry">
            <mxPoint x="200" y="170" as="sourcePoint" />
            <mxPoint x="490" y="240" as="targetPoint" />
          </mxGeometry>
        </mxCell>
        <mxCell id="4UrJrqEXT7uLGCO6xylo-16" value="" style="endArrow=diamondThin;endFill=1;endSize=24;html=1;rounded=0;entryX=0.75;entryY=1;entryDx=0;entryDy=0;exitX=0.5;exitY=0;exitDx=0;exitDy=0;" parent="WIyWlLk6GJQsqaUBKTNV-1" source="4UrJrqEXT7uLGCO6xylo-13" target="4UrJrqEXT7uLGCO6xylo-6" edge="1">
          <mxGeometry width="160" relative="1" as="geometry">
            <mxPoint x="330" y="240" as="sourcePoint" />
            <mxPoint x="490" y="240" as="targetPoint" />
          </mxGeometry>
        </mxCell>
        <mxCell id="4UrJrqEXT7uLGCO6xylo-18" value="Connection" style="swimlane;fontStyle=2;align=center;verticalAlign=top;childLayout=stackLayout;horizontal=1;startSize=26;horizontalStack=0;resizeParent=1;resizeLast=0;collapsible=1;marginBottom=0;rounded=0;shadow=0;strokeWidth=1;" parent="WIyWlLk6GJQsqaUBKTNV-1" vertex="1">
          <mxGeometry x="595" y="170" width="130" height="110" as="geometry">
            <mxRectangle x="230" y="140" width="160" height="26" as="alternateBounds" />
          </mxGeometry>
        </mxCell>
        <mxCell id="eK2f0mzsQCClxwwo3MAG-25" value="label" style="text;align=left;verticalAlign=top;spacingLeft=4;spacingRight=4;overflow=hidden;rotatable=0;points=[[0,0.5],[1,0.5]];portConstraint=eastwest;" vertex="1" parent="4UrJrqEXT7uLGCO6xylo-18">
          <mxGeometry y="26" width="130" height="24" as="geometry" />
        </mxCell>
        <mxCell id="eK2f0mzsQCClxwwo3MAG-26" value="node1" style="text;align=left;verticalAlign=top;spacingLeft=4;spacingRight=4;overflow=hidden;rotatable=0;points=[[0,0.5],[1,0.5]];portConstraint=eastwest;" vertex="1" parent="4UrJrqEXT7uLGCO6xylo-18">
          <mxGeometry y="50" width="130" height="24" as="geometry" />
        </mxCell>
        <mxCell id="eK2f0mzsQCClxwwo3MAG-27" value="node2" style="text;align=left;verticalAlign=top;spacingLeft=4;spacingRight=4;overflow=hidden;rotatable=0;points=[[0,0.5],[1,0.5]];portConstraint=eastwest;" vertex="1" parent="4UrJrqEXT7uLGCO6xylo-18">
          <mxGeometry y="74" width="130" height="24" as="geometry" />
        </mxCell>
        <mxCell id="4UrJrqEXT7uLGCO6xylo-19" value="" style="line;html=1;strokeWidth=1;align=left;verticalAlign=middle;spacingTop=-1;spacingLeft=3;spacingRight=3;rotatable=0;labelPosition=right;points=[];portConstraint=eastwest;" parent="4UrJrqEXT7uLGCO6xylo-18" vertex="1">
          <mxGeometry y="98" width="130" height="10" as="geometry" />
        </mxCell>
        <mxCell id="4UrJrqEXT7uLGCO6xylo-22" value="" style="endArrow=diamondThin;endFill=0;endSize=24;html=1;rounded=0;entryX=0.5;entryY=1;entryDx=0;entryDy=0;" parent="WIyWlLk6GJQsqaUBKTNV-1" source="4UrJrqEXT7uLGCO6xylo-18" target="4UrJrqEXT7uLGCO6xylo-0" edge="1">
          <mxGeometry width="160" relative="1" as="geometry">
            <mxPoint x="425" y="240" as="sourcePoint" />
            <mxPoint x="635" y="120" as="targetPoint" />
          </mxGeometry>
        </mxCell>
        <mxCell id="4UrJrqEXT7uLGCO6xylo-23" value="ClassicalChannel" style="swimlane;fontStyle=2;align=center;verticalAlign=top;childLayout=stackLayout;horizontal=1;startSize=26;horizontalStack=0;resizeParent=1;resizeLast=0;collapsible=1;marginBottom=0;rounded=0;shadow=0;strokeWidth=1;" parent="WIyWlLk6GJQsqaUBKTNV-1" vertex="1">
          <mxGeometry x="695" y="347" width="130" height="102" as="geometry">
            <mxRectangle x="230" y="140" width="160" height="26" as="alternateBounds" />
          </mxGeometry>
        </mxCell>
        <mxCell id="eK2f0mzsQCClxwwo3MAG-30" value="name" style="text;align=left;verticalAlign=top;spacingLeft=4;spacingRight=4;overflow=hidden;rotatable=0;points=[[0,0.5],[1,0.5]];portConstraint=eastwest;" vertex="1" parent="4UrJrqEXT7uLGCO6xylo-23">
          <mxGeometry y="26" width="130" height="20" as="geometry" />
        </mxCell>
        <mxCell id="4UrJrqEXT7uLGCO6xylo-29" value="length" style="text;align=left;verticalAlign=top;spacingLeft=4;spacingRight=4;overflow=hidden;rotatable=0;points=[[0,0.5],[1,0.5]];portConstraint=eastwest;" parent="4UrJrqEXT7uLGCO6xylo-23" vertex="1">
          <mxGeometry y="46" width="130" height="20" as="geometry" />
        </mxCell>
        <mxCell id="eK2f0mzsQCClxwwo3MAG-31" value="delaymodel" style="text;align=left;verticalAlign=top;spacingLeft=4;spacingRight=4;overflow=hidden;rotatable=0;points=[[0,0.5],[1,0.5]];portConstraint=eastwest;" vertex="1" parent="4UrJrqEXT7uLGCO6xylo-23">
          <mxGeometry y="66" width="130" height="20" as="geometry" />
        </mxCell>
        <mxCell id="4UrJrqEXT7uLGCO6xylo-24" value="" style="line;html=1;strokeWidth=1;align=left;verticalAlign=middle;spacingTop=-1;spacingLeft=3;spacingRight=3;rotatable=0;labelPosition=right;points=[];portConstraint=eastwest;" parent="4UrJrqEXT7uLGCO6xylo-23" vertex="1">
          <mxGeometry y="86" width="130" height="14" as="geometry" />
        </mxCell>
        <mxCell id="4UrJrqEXT7uLGCO6xylo-35" value="QuantumChannel" style="swimlane;fontStyle=2;align=center;verticalAlign=top;childLayout=stackLayout;horizontal=1;startSize=26;horizontalStack=0;resizeParent=1;resizeLast=0;collapsible=1;marginBottom=0;rounded=0;shadow=0;strokeWidth=1;" parent="WIyWlLk6GJQsqaUBKTNV-1" vertex="1">
          <mxGeometry x="510" y="347" width="155" height="122" as="geometry">
            <mxRectangle x="230" y="140" width="160" height="26" as="alternateBounds" />
          </mxGeometry>
        </mxCell>
        <mxCell id="4UrJrqEXT7uLGCO6xylo-36" value="name" style="text;align=left;verticalAlign=top;spacingLeft=4;spacingRight=4;overflow=hidden;rotatable=0;points=[[0,0.5],[1,0.5]];portConstraint=eastwest;" parent="4UrJrqEXT7uLGCO6xylo-35" vertex="1">
          <mxGeometry y="26" width="155" height="20" as="geometry" />
        </mxCell>
        <mxCell id="4UrJrqEXT7uLGCO6xylo-38" value="length" style="text;align=left;verticalAlign=top;spacingLeft=4;spacingRight=4;overflow=hidden;rotatable=0;points=[[0,0.5],[1,0.5]];portConstraint=eastwest;" parent="4UrJrqEXT7uLGCO6xylo-35" vertex="1">
          <mxGeometry y="46" width="155" height="20" as="geometry" />
        </mxCell>
        <mxCell id="4UrJrqEXT7uLGCO6xylo-39" value="quantum_noise_model" style="text;align=left;verticalAlign=top;spacingLeft=4;spacingRight=4;overflow=hidden;rotatable=0;points=[[0,0.5],[1,0.5]];portConstraint=eastwest;" parent="4UrJrqEXT7uLGCO6xylo-35" vertex="1">
          <mxGeometry y="66" width="155" height="20" as="geometry" />
        </mxCell>
        <mxCell id="eK2f0mzsQCClxwwo3MAG-29" value="delay_model" style="text;align=left;verticalAlign=top;spacingLeft=4;spacingRight=4;overflow=hidden;rotatable=0;points=[[0,0.5],[1,0.5]];portConstraint=eastwest;" vertex="1" parent="4UrJrqEXT7uLGCO6xylo-35">
          <mxGeometry y="86" width="155" height="20" as="geometry" />
        </mxCell>
        <mxCell id="4UrJrqEXT7uLGCO6xylo-37" value="" style="line;html=1;strokeWidth=1;align=left;verticalAlign=middle;spacingTop=-1;spacingLeft=3;spacingRight=3;rotatable=0;labelPosition=right;points=[];portConstraint=eastwest;" parent="4UrJrqEXT7uLGCO6xylo-35" vertex="1">
          <mxGeometry y="106" width="155" height="14" as="geometry" />
        </mxCell>
        <mxCell id="4UrJrqEXT7uLGCO6xylo-40" value="" style="endArrow=none;shadow=0;strokeWidth=1;rounded=0;curved=0;endFill=0;edgeStyle=elbowEdgeStyle;elbow=vertical;exitX=0.5;exitY=0;exitDx=0;exitDy=0;entryX=0.25;entryY=1;entryDx=0;entryDy=0;" parent="WIyWlLk6GJQsqaUBKTNV-1" source="4UrJrqEXT7uLGCO6xylo-35" edge="1" target="4UrJrqEXT7uLGCO6xylo-18">
          <mxGeometry x="0.5" y="41" relative="1" as="geometry">
            <mxPoint x="475" y="272" as="sourcePoint" />
            <mxPoint x="612.5" y="280" as="targetPoint" />
            <mxPoint x="-40" y="32" as="offset" />
          </mxGeometry>
        </mxCell>
        <mxCell id="4UrJrqEXT7uLGCO6xylo-41" value="1" style="resizable=0;align=left;verticalAlign=bottom;labelBackgroundColor=none;fontSize=12;" parent="4UrJrqEXT7uLGCO6xylo-40" connectable="0" vertex="1">
          <mxGeometry x="-1" relative="1" as="geometry">
            <mxPoint y="4" as="offset" />
          </mxGeometry>
        </mxCell>
        <mxCell id="4UrJrqEXT7uLGCO6xylo-42" value="1" style="resizable=0;align=right;verticalAlign=bottom;labelBackgroundColor=none;fontSize=12;" parent="4UrJrqEXT7uLGCO6xylo-40" connectable="0" vertex="1">
          <mxGeometry x="1" relative="1" as="geometry">
            <mxPoint x="-7" y="21" as="offset" />
          </mxGeometry>
        </mxCell>
        <mxCell id="4UrJrqEXT7uLGCO6xylo-46" value="" style="endArrow=none;shadow=0;strokeWidth=1;rounded=0;curved=0;endFill=0;edgeStyle=elbowEdgeStyle;elbow=vertical;exitX=0.5;exitY=0;exitDx=0;exitDy=0;entryX=0.75;entryY=1;entryDx=0;entryDy=0;" parent="WIyWlLk6GJQsqaUBKTNV-1" source="4UrJrqEXT7uLGCO6xylo-23" target="4UrJrqEXT7uLGCO6xylo-18" edge="1">
          <mxGeometry x="0.5" y="41" relative="1" as="geometry">
            <mxPoint x="598" y="357" as="sourcePoint" />
            <mxPoint x="677.5" y="280" as="targetPoint" />
            <mxPoint x="-40" y="32" as="offset" />
          </mxGeometry>
        </mxCell>
        <mxCell id="4UrJrqEXT7uLGCO6xylo-47" value="1..2" style="resizable=0;align=left;verticalAlign=bottom;labelBackgroundColor=none;fontSize=12;" parent="4UrJrqEXT7uLGCO6xylo-46" connectable="0" vertex="1">
          <mxGeometry x="-1" relative="1" as="geometry">
            <mxPoint y="4" as="offset" />
          </mxGeometry>
        </mxCell>
        <mxCell id="4UrJrqEXT7uLGCO6xylo-48" value="1" style="resizable=0;align=right;verticalAlign=bottom;labelBackgroundColor=none;fontSize=12;" parent="4UrJrqEXT7uLGCO6xylo-46" connectable="0" vertex="1">
          <mxGeometry x="1" relative="1" as="geometry">
            <mxPoint x="-7" y="21" as="offset" />
          </mxGeometry>
        </mxCell>
        <mxCell id="4UrJrqEXT7uLGCO6xylo-51" value="0..*" style="resizable=0;align=left;verticalAlign=bottom;labelBackgroundColor=none;fontSize=12;" parent="WIyWlLk6GJQsqaUBKTNV-1" connectable="0" vertex="1">
          <mxGeometry x="668.5" y="158" as="geometry">
            <mxPoint x="-4" y="8" as="offset" />
          </mxGeometry>
        </mxCell>
        <mxCell id="4UrJrqEXT7uLGCO6xylo-52" value="1" style="resizable=0;align=right;verticalAlign=bottom;labelBackgroundColor=none;fontSize=12;" parent="WIyWlLk6GJQsqaUBKTNV-1" connectable="0" vertex="1">
          <mxGeometry x="338" y="183" as="geometry">
            <mxPoint x="21" y="-2" as="offset" />
          </mxGeometry>
        </mxCell>
        <mxCell id="4UrJrqEXT7uLGCO6xylo-53" value="0..*" style="resizable=0;align=right;verticalAlign=bottom;labelBackgroundColor=none;fontSize=12;" parent="WIyWlLk6GJQsqaUBKTNV-1" connectable="0" vertex="1">
          <mxGeometry x="208" y="184" as="geometry">
            <mxPoint x="21" y="-2" as="offset" />
          </mxGeometry>
        </mxCell>
        <mxCell id="4UrJrqEXT7uLGCO6xylo-54" value="Port" style="swimlane;fontStyle=2;align=center;verticalAlign=top;childLayout=stackLayout;horizontal=1;startSize=26;horizontalStack=0;resizeParent=1;resizeLast=0;collapsible=1;marginBottom=0;rounded=0;shadow=0;strokeWidth=1;" parent="WIyWlLk6GJQsqaUBKTNV-1" vertex="1">
          <mxGeometry x="-10" y="180" width="130" height="60" as="geometry">
            <mxRectangle x="230" y="140" width="160" height="26" as="alternateBounds" />
          </mxGeometry>
        </mxCell>
        <mxCell id="eK2f0mzsQCClxwwo3MAG-24" value="name" style="text;align=left;verticalAlign=top;spacingLeft=4;spacingRight=4;overflow=hidden;rotatable=0;points=[[0,0.5],[1,0.5]];portConstraint=eastwest;" vertex="1" parent="4UrJrqEXT7uLGCO6xylo-54">
          <mxGeometry y="26" width="130" height="24" as="geometry" />
        </mxCell>
        <mxCell id="4UrJrqEXT7uLGCO6xylo-55" value="" style="line;html=1;strokeWidth=1;align=left;verticalAlign=middle;spacingTop=-1;spacingLeft=3;spacingRight=3;rotatable=0;labelPosition=right;points=[];portConstraint=eastwest;" parent="4UrJrqEXT7uLGCO6xylo-54" vertex="1">
          <mxGeometry y="50" width="130" height="10" as="geometry" />
        </mxCell>
        <mxCell id="4UrJrqEXT7uLGCO6xylo-57" value="" style="endArrow=none;shadow=0;strokeWidth=1;rounded=0;curved=0;endFill=0;edgeStyle=elbowEdgeStyle;elbow=vertical;exitX=0.5;exitY=0;exitDx=0;exitDy=0;" parent="WIyWlLk6GJQsqaUBKTNV-1" edge="1">
          <mxGeometry x="0.5" y="41" relative="1" as="geometry">
            <mxPoint x="80" y="180" as="sourcePoint" />
            <mxPoint x="190" y="120" as="targetPoint" />
            <mxPoint x="-40" y="32" as="offset" />
          </mxGeometry>
        </mxCell>
        <mxCell id="4UrJrqEXT7uLGCO6xylo-58" value="2..*" style="resizable=0;align=left;verticalAlign=bottom;labelBackgroundColor=none;fontSize=12;" parent="4UrJrqEXT7uLGCO6xylo-57" connectable="0" vertex="1">
          <mxGeometry x="-1" relative="1" as="geometry">
            <mxPoint y="4" as="offset" />
          </mxGeometry>
        </mxCell>
        <mxCell id="4UrJrqEXT7uLGCO6xylo-59" value="1" style="resizable=0;align=right;verticalAlign=bottom;labelBackgroundColor=none;fontSize=12;" parent="4UrJrqEXT7uLGCO6xylo-57" connectable="0" vertex="1">
          <mxGeometry x="1" relative="1" as="geometry">
            <mxPoint x="-7" y="21" as="offset" />
          </mxGeometry>
        </mxCell>
        <mxCell id="eK2f0mzsQCClxwwo3MAG-1" value="StateSampler" style="swimlane;fontStyle=2;align=center;verticalAlign=top;childLayout=stackLayout;horizontal=1;startSize=26;horizontalStack=0;resizeParent=1;resizeLast=0;collapsible=1;marginBottom=0;rounded=0;shadow=0;strokeWidth=1;" vertex="1" parent="WIyWlLk6GJQsqaUBKTNV-1">
          <mxGeometry x="70" y="359" width="110" height="90" as="geometry">
            <mxRectangle x="230" y="140" width="160" height="26" as="alternateBounds" />
          </mxGeometry>
        </mxCell>
        <mxCell id="eK2f0mzsQCClxwwo3MAG-2" value="source_fidelity_sq" style="text;align=left;verticalAlign=top;spacingLeft=4;spacingRight=4;overflow=hidden;rotatable=0;points=[[0,0.5],[1,0.5]];portConstraint=eastwest;" vertex="1" parent="eK2f0mzsQCClxwwo3MAG-1">
          <mxGeometry y="26" width="110" height="24" as="geometry" />
        </mxCell>
        <mxCell id="eK2f0mzsQCClxwwo3MAG-3" value="source_delay" style="text;align=left;verticalAlign=top;spacingLeft=4;spacingRight=4;overflow=hidden;rotatable=0;points=[[0,0.5],[1,0.5]];portConstraint=eastwest;" vertex="1" parent="eK2f0mzsQCClxwwo3MAG-1">
          <mxGeometry y="50" width="110" height="24" as="geometry" />
        </mxCell>
        <mxCell id="eK2f0mzsQCClxwwo3MAG-4" value="" style="line;html=1;strokeWidth=1;align=left;verticalAlign=middle;spacingTop=-1;spacingLeft=3;spacingRight=3;rotatable=0;labelPosition=right;points=[];portConstraint=eastwest;" vertex="1" parent="eK2f0mzsQCClxwwo3MAG-1">
          <mxGeometry y="74" width="110" height="16" as="geometry" />
        </mxCell>
        <mxCell id="eK2f0mzsQCClxwwo3MAG-8" value="" style="endArrow=none;shadow=0;strokeWidth=1;rounded=0;curved=0;endFill=0;edgeStyle=elbowEdgeStyle;elbow=vertical;exitX=0.5;exitY=0;exitDx=0;exitDy=0;entryX=0.494;entryY=1.033;entryDx=0;entryDy=0;entryPerimeter=0;" edge="1" parent="WIyWlLk6GJQsqaUBKTNV-1" source="eK2f0mzsQCClxwwo3MAG-1" target="eK2f0mzsQCClxwwo3MAG-7">
          <mxGeometry x="0.5" y="41" relative="1" as="geometry">
            <mxPoint x="90" y="190" as="sourcePoint" />
            <mxPoint x="200" y="130" as="targetPoint" />
            <mxPoint x="-40" y="32" as="offset" />
          </mxGeometry>
        </mxCell>
        <mxCell id="eK2f0mzsQCClxwwo3MAG-9" value="1" style="resizable=0;align=left;verticalAlign=bottom;labelBackgroundColor=none;fontSize=12;" connectable="0" vertex="1" parent="eK2f0mzsQCClxwwo3MAG-8">
          <mxGeometry x="-1" relative="1" as="geometry">
            <mxPoint y="4" as="offset" />
          </mxGeometry>
        </mxCell>
        <mxCell id="eK2f0mzsQCClxwwo3MAG-10" value="1..*" style="resizable=0;align=right;verticalAlign=bottom;labelBackgroundColor=none;fontSize=12;" connectable="0" vertex="1" parent="eK2f0mzsQCClxwwo3MAG-8">
          <mxGeometry x="1" relative="1" as="geometry">
            <mxPoint x="-7" y="21" as="offset" />
          </mxGeometry>
        </mxCell>
        <mxCell id="eK2f0mzsQCClxwwo3MAG-12" value="PhysicalInstruction" style="swimlane;fontStyle=2;align=center;verticalAlign=top;childLayout=stackLayout;horizontal=1;startSize=26;horizontalStack=0;resizeParent=1;resizeLast=0;collapsible=1;marginBottom=0;rounded=0;shadow=0;strokeWidth=1;" vertex="1" parent="WIyWlLk6GJQsqaUBKTNV-1">
          <mxGeometry x="370" y="390" width="131" height="110" as="geometry">
            <mxRectangle x="230" y="140" width="160" height="26" as="alternateBounds" />
          </mxGeometry>
        </mxCell>
        <mxCell id="eK2f0mzsQCClxwwo3MAG-13" value="type" style="text;align=left;verticalAlign=top;spacingLeft=4;spacingRight=4;overflow=hidden;rotatable=0;points=[[0,0.5],[1,0.5]];portConstraint=eastwest;" vertex="1" parent="eK2f0mzsQCClxwwo3MAG-12">
          <mxGeometry y="26" width="131" height="24" as="geometry" />
        </mxCell>
        <mxCell id="eK2f0mzsQCClxwwo3MAG-14" value="duration" style="text;align=left;verticalAlign=top;spacingLeft=4;spacingRight=4;overflow=hidden;rotatable=0;points=[[0,0.5],[1,0.5]];portConstraint=eastwest;" vertex="1" parent="eK2f0mzsQCClxwwo3MAG-12">
          <mxGeometry y="50" width="131" height="24" as="geometry" />
        </mxCell>
        <mxCell id="eK2f0mzsQCClxwwo3MAG-20" value="quantum_noise_model" style="text;align=left;verticalAlign=top;spacingLeft=4;spacingRight=4;overflow=hidden;rotatable=0;points=[[0,0.5],[1,0.5]];portConstraint=eastwest;" vertex="1" parent="eK2f0mzsQCClxwwo3MAG-12">
          <mxGeometry y="74" width="131" height="24" as="geometry" />
        </mxCell>
        <mxCell id="eK2f0mzsQCClxwwo3MAG-15" value="" style="line;html=1;strokeWidth=1;align=left;verticalAlign=middle;spacingTop=-1;spacingLeft=3;spacingRight=3;rotatable=0;labelPosition=right;points=[];portConstraint=eastwest;" vertex="1" parent="eK2f0mzsQCClxwwo3MAG-12">
          <mxGeometry y="98" width="131" height="12" as="geometry" />
        </mxCell>
        <mxCell id="eK2f0mzsQCClxwwo3MAG-21" value="" style="endArrow=none;shadow=0;strokeWidth=1;rounded=0;curved=0;endFill=0;edgeStyle=elbowEdgeStyle;elbow=vertical;exitX=0.5;exitY=0;exitDx=0;exitDy=0;entryX=0.592;entryY=0.967;entryDx=0;entryDy=0;entryPerimeter=0;" edge="1" parent="WIyWlLk6GJQsqaUBKTNV-1" source="eK2f0mzsQCClxwwo3MAG-12" target="eK2f0mzsQCClxwwo3MAG-11">
          <mxGeometry x="0.5" y="41" relative="1" as="geometry">
            <mxPoint x="421" y="360" as="sourcePoint" />
            <mxPoint x="421" y="321" as="targetPoint" />
            <mxPoint x="-40" y="32" as="offset" />
          </mxGeometry>
        </mxCell>
        <mxCell id="eK2f0mzsQCClxwwo3MAG-22" value="1..*" style="resizable=0;align=left;verticalAlign=bottom;labelBackgroundColor=none;fontSize=12;" connectable="0" vertex="1" parent="eK2f0mzsQCClxwwo3MAG-21">
          <mxGeometry x="-1" relative="1" as="geometry">
            <mxPoint y="4" as="offset" />
          </mxGeometry>
        </mxCell>
        <mxCell id="eK2f0mzsQCClxwwo3MAG-23" value="1" style="resizable=0;align=right;verticalAlign=bottom;labelBackgroundColor=none;fontSize=12;" connectable="0" vertex="1" parent="eK2f0mzsQCClxwwo3MAG-21">
          <mxGeometry x="1" relative="1" as="geometry">
            <mxPoint x="-7" y="21" as="offset" />
          </mxGeometry>
        </mxCell>
        <mxCell id="eK2f0mzsQCClxwwo3MAG-32" value="FibreDelayModel" style="swimlane;fontStyle=2;align=center;verticalAlign=top;childLayout=stackLayout;horizontal=1;startSize=26;horizontalStack=0;resizeParent=1;resizeLast=0;collapsible=1;marginBottom=0;rounded=0;shadow=0;strokeWidth=1;" vertex="1" parent="WIyWlLk6GJQsqaUBKTNV-1">
          <mxGeometry x="615" y="620" width="110" height="40" as="geometry">
            <mxRectangle x="230" y="140" width="160" height="26" as="alternateBounds" />
          </mxGeometry>
        </mxCell>
        <mxCell id="eK2f0mzsQCClxwwo3MAG-36" value="" style="line;html=1;strokeWidth=1;align=left;verticalAlign=middle;spacingTop=-1;spacingLeft=3;spacingRight=3;rotatable=0;labelPosition=right;points=[];portConstraint=eastwest;" vertex="1" parent="eK2f0mzsQCClxwwo3MAG-32">
          <mxGeometry y="26" width="110" height="14" as="geometry" />
        </mxCell>
        <mxCell id="eK2f0mzsQCClxwwo3MAG-37" value="GaussianDelayModel" style="swimlane;fontStyle=2;align=center;verticalAlign=top;childLayout=stackLayout;horizontal=1;startSize=26;horizontalStack=0;resizeParent=1;resizeLast=0;collapsible=1;marginBottom=0;rounded=0;shadow=0;strokeWidth=1;" vertex="1" parent="WIyWlLk6GJQsqaUBKTNV-1">
          <mxGeometry x="680" y="545" width="130" height="40" as="geometry">
            <mxRectangle x="230" y="140" width="160" height="26" as="alternateBounds" />
          </mxGeometry>
        </mxCell>
        <mxCell id="eK2f0mzsQCClxwwo3MAG-38" value="" style="line;html=1;strokeWidth=1;align=left;verticalAlign=middle;spacingTop=-1;spacingLeft=3;spacingRight=3;rotatable=0;labelPosition=right;points=[];portConstraint=eastwest;" vertex="1" parent="eK2f0mzsQCClxwwo3MAG-37">
          <mxGeometry y="26" width="130" height="14" as="geometry" />
        </mxCell>
        <mxCell id="eK2f0mzsQCClxwwo3MAG-42" value="" style="endArrow=none;shadow=0;strokeWidth=1;rounded=0;curved=0;endFill=0;edgeStyle=elbowEdgeStyle;elbow=vertical;exitX=0.75;exitY=0;exitDx=0;exitDy=0;entryX=0.75;entryY=1;entryDx=0;entryDy=0;" edge="1" parent="WIyWlLk6GJQsqaUBKTNV-1" source="eK2f0mzsQCClxwwo3MAG-37">
          <mxGeometry x="0.5" y="41" relative="1" as="geometry">
            <mxPoint x="882.5" y="516" as="sourcePoint" />
            <mxPoint x="800" y="449" as="targetPoint" />
            <mxPoint x="-40" y="32" as="offset" />
          </mxGeometry>
        </mxCell>
        <mxCell id="eK2f0mzsQCClxwwo3MAG-43" value="0..1" style="resizable=0;align=left;verticalAlign=bottom;labelBackgroundColor=none;fontSize=12;" connectable="0" vertex="1" parent="eK2f0mzsQCClxwwo3MAG-42">
          <mxGeometry x="-1" relative="1" as="geometry">
            <mxPoint y="4" as="offset" />
          </mxGeometry>
        </mxCell>
        <mxCell id="eK2f0mzsQCClxwwo3MAG-44" value="1" style="resizable=0;align=right;verticalAlign=bottom;labelBackgroundColor=none;fontSize=12;" connectable="0" vertex="1" parent="eK2f0mzsQCClxwwo3MAG-42">
          <mxGeometry x="1" relative="1" as="geometry">
            <mxPoint x="-7" y="21" as="offset" />
          </mxGeometry>
        </mxCell>
        <mxCell id="eK2f0mzsQCClxwwo3MAG-45" value="" style="endArrow=none;shadow=0;strokeWidth=1;rounded=0;curved=0;endFill=0;edgeStyle=elbowEdgeStyle;elbow=vertical;exitX=0.5;exitY=0;exitDx=0;exitDy=0;entryX=0.25;entryY=1;entryDx=0;entryDy=0;" edge="1" parent="WIyWlLk6GJQsqaUBKTNV-1" source="eK2f0mzsQCClxwwo3MAG-32" target="4UrJrqEXT7uLGCO6xylo-23">
          <mxGeometry x="0.5" y="41" relative="1" as="geometry">
            <mxPoint x="788" y="555" as="sourcePoint" />
            <mxPoint x="810" y="459" as="targetPoint" />
            <mxPoint x="-40" y="32" as="offset" />
          </mxGeometry>
        </mxCell>
        <mxCell id="eK2f0mzsQCClxwwo3MAG-46" value="0..1" style="resizable=0;align=left;verticalAlign=bottom;labelBackgroundColor=none;fontSize=12;" connectable="0" vertex="1" parent="eK2f0mzsQCClxwwo3MAG-45">
          <mxGeometry x="-1" relative="1" as="geometry">
            <mxPoint y="4" as="offset" />
          </mxGeometry>
        </mxCell>
        <mxCell id="eK2f0mzsQCClxwwo3MAG-47" value="1" style="resizable=0;align=right;verticalAlign=bottom;labelBackgroundColor=none;fontSize=12;" connectable="0" vertex="1" parent="eK2f0mzsQCClxwwo3MAG-45">
          <mxGeometry x="1" relative="1" as="geometry">
            <mxPoint x="-7" y="21" as="offset" />
          </mxGeometry>
        </mxCell>
        <mxCell id="eK2f0mzsQCClxwwo3MAG-48" value="DepolarNoiseModel" style="swimlane;fontStyle=2;align=center;verticalAlign=top;childLayout=stackLayout;horizontal=1;startSize=26;horizontalStack=0;resizeParent=1;resizeLast=0;collapsible=1;marginBottom=0;rounded=0;shadow=0;strokeWidth=1;" vertex="1" parent="WIyWlLk6GJQsqaUBKTNV-1">
          <mxGeometry x="150" y="620" width="110" height="40" as="geometry">
            <mxRectangle x="230" y="140" width="160" height="26" as="alternateBounds" />
          </mxGeometry>
        </mxCell>
        <mxCell id="eK2f0mzsQCClxwwo3MAG-49" value="" style="line;html=1;strokeWidth=1;align=left;verticalAlign=middle;spacingTop=-1;spacingLeft=3;spacingRight=3;rotatable=0;labelPosition=right;points=[];portConstraint=eastwest;" vertex="1" parent="eK2f0mzsQCClxwwo3MAG-48">
          <mxGeometry y="26" width="110" height="14" as="geometry" />
        </mxCell>
        <mxCell id="eK2f0mzsQCClxwwo3MAG-50" value="FibreDepolarizeModel" style="swimlane;fontStyle=2;align=center;verticalAlign=top;childLayout=stackLayout;horizontal=1;startSize=26;horizontalStack=0;resizeParent=1;resizeLast=0;collapsible=1;marginBottom=0;rounded=0;shadow=0;strokeWidth=1;" vertex="1" parent="WIyWlLk6GJQsqaUBKTNV-1">
          <mxGeometry x="380" y="620" width="121" height="40" as="geometry">
            <mxRectangle x="230" y="140" width="160" height="26" as="alternateBounds" />
          </mxGeometry>
        </mxCell>
        <mxCell id="eK2f0mzsQCClxwwo3MAG-51" value="" style="line;html=1;strokeWidth=1;align=left;verticalAlign=middle;spacingTop=-1;spacingLeft=3;spacingRight=3;rotatable=0;labelPosition=right;points=[];portConstraint=eastwest;" vertex="1" parent="eK2f0mzsQCClxwwo3MAG-50">
          <mxGeometry y="26" width="121" height="14" as="geometry" />
        </mxCell>
        <mxCell id="eK2f0mzsQCClxwwo3MAG-52" value="DephaseNoiseModel" style="swimlane;fontStyle=2;align=center;verticalAlign=top;childLayout=stackLayout;horizontal=1;startSize=26;horizontalStack=0;resizeParent=1;resizeLast=0;collapsible=1;marginBottom=0;rounded=0;shadow=0;strokeWidth=1;" vertex="1" parent="WIyWlLk6GJQsqaUBKTNV-1">
          <mxGeometry x="30" y="530" width="120" height="40" as="geometry">
            <mxRectangle x="230" y="140" width="160" height="26" as="alternateBounds" />
          </mxGeometry>
        </mxCell>
        <mxCell id="eK2f0mzsQCClxwwo3MAG-53" value="" style="line;html=1;strokeWidth=1;align=left;verticalAlign=middle;spacingTop=-1;spacingLeft=3;spacingRight=3;rotatable=0;labelPosition=right;points=[];portConstraint=eastwest;" vertex="1" parent="eK2f0mzsQCClxwwo3MAG-52">
          <mxGeometry y="26" width="120" height="14" as="geometry" />
        </mxCell>
        <mxCell id="eK2f0mzsQCClxwwo3MAG-54" value="FibreLossModel" style="swimlane;fontStyle=2;align=center;verticalAlign=top;childLayout=stackLayout;horizontal=1;startSize=26;horizontalStack=0;resizeParent=1;resizeLast=0;collapsible=1;marginBottom=0;rounded=0;shadow=0;strokeWidth=1;" vertex="1" parent="WIyWlLk6GJQsqaUBKTNV-1">
          <mxGeometry x="505" y="620" width="100" height="40" as="geometry">
            <mxRectangle x="230" y="140" width="160" height="26" as="alternateBounds" />
          </mxGeometry>
        </mxCell>
        <mxCell id="eK2f0mzsQCClxwwo3MAG-55" value="" style="line;html=1;strokeWidth=1;align=left;verticalAlign=middle;spacingTop=-1;spacingLeft=3;spacingRight=3;rotatable=0;labelPosition=right;points=[];portConstraint=eastwest;" vertex="1" parent="eK2f0mzsQCClxwwo3MAG-54">
          <mxGeometry y="26" width="100" height="14" as="geometry" />
        </mxCell>
        <mxCell id="eK2f0mzsQCClxwwo3MAG-56" value="T1T2NoiseModel" style="swimlane;fontStyle=2;align=center;verticalAlign=top;childLayout=stackLayout;horizontal=1;startSize=26;horizontalStack=0;resizeParent=1;resizeLast=0;collapsible=1;marginBottom=0;rounded=0;shadow=0;strokeWidth=1;" vertex="1" parent="WIyWlLk6GJQsqaUBKTNV-1">
          <mxGeometry x="270" y="620" width="100" height="40" as="geometry">
            <mxRectangle x="230" y="140" width="160" height="26" as="alternateBounds" />
          </mxGeometry>
        </mxCell>
        <mxCell id="eK2f0mzsQCClxwwo3MAG-57" value="" style="line;html=1;strokeWidth=1;align=left;verticalAlign=middle;spacingTop=-1;spacingLeft=3;spacingRight=3;rotatable=0;labelPosition=right;points=[];portConstraint=eastwest;" vertex="1" parent="eK2f0mzsQCClxwwo3MAG-56">
          <mxGeometry y="26" width="100" height="14" as="geometry" />
        </mxCell>
        <mxCell id="eK2f0mzsQCClxwwo3MAG-59" value="" style="endArrow=none;shadow=0;strokeWidth=1;rounded=0;curved=0;endFill=0;edgeStyle=elbowEdgeStyle;elbow=vertical;exitX=0.5;exitY=0;exitDx=0;exitDy=0;" edge="1" parent="WIyWlLk6GJQsqaUBKTNV-1" source="eK2f0mzsQCClxwwo3MAG-54">
          <mxGeometry x="0.5" y="41" relative="1" as="geometry">
            <mxPoint x="440" y="585" as="sourcePoint" />
            <mxPoint x="650" y="470" as="targetPoint" />
            <mxPoint x="-40" y="32" as="offset" />
            <Array as="points">
              <mxPoint x="600" y="600" />
            </Array>
          </mxGeometry>
        </mxCell>
        <mxCell id="eK2f0mzsQCClxwwo3MAG-60" value="0..1" style="resizable=0;align=left;verticalAlign=bottom;labelBackgroundColor=none;fontSize=12;" connectable="0" vertex="1" parent="eK2f0mzsQCClxwwo3MAG-59">
          <mxGeometry x="-1" relative="1" as="geometry">
            <mxPoint y="4" as="offset" />
          </mxGeometry>
        </mxCell>
        <mxCell id="eK2f0mzsQCClxwwo3MAG-61" value="1" style="resizable=0;align=right;verticalAlign=bottom;labelBackgroundColor=none;fontSize=12;" connectable="0" vertex="1" parent="eK2f0mzsQCClxwwo3MAG-59">
          <mxGeometry x="1" relative="1" as="geometry">
            <mxPoint x="-7" y="21" as="offset" />
          </mxGeometry>
        </mxCell>
        <mxCell id="eK2f0mzsQCClxwwo3MAG-62" value="" style="endArrow=none;shadow=0;strokeWidth=1;rounded=0;curved=0;endFill=0;edgeStyle=elbowEdgeStyle;elbow=vertical;exitX=0.5;exitY=0;exitDx=0;exitDy=0;entryX=0.75;entryY=1;entryDx=0;entryDy=0;" edge="1" parent="WIyWlLk6GJQsqaUBKTNV-1" source="eK2f0mzsQCClxwwo3MAG-50" target="4UrJrqEXT7uLGCO6xylo-35">
          <mxGeometry x="0.5" y="41" relative="1" as="geometry">
            <mxPoint x="480" y="600" as="sourcePoint" />
            <mxPoint x="558" y="469" as="targetPoint" />
            <mxPoint x="-40" y="32" as="offset" />
            <Array as="points">
              <mxPoint x="540" y="590" />
            </Array>
          </mxGeometry>
        </mxCell>
        <mxCell id="eK2f0mzsQCClxwwo3MAG-63" value="0..1" style="resizable=0;align=left;verticalAlign=bottom;labelBackgroundColor=none;fontSize=12;" connectable="0" vertex="1" parent="eK2f0mzsQCClxwwo3MAG-62">
          <mxGeometry x="-1" relative="1" as="geometry">
            <mxPoint y="4" as="offset" />
          </mxGeometry>
        </mxCell>
        <mxCell id="eK2f0mzsQCClxwwo3MAG-64" value="1" style="resizable=0;align=right;verticalAlign=bottom;labelBackgroundColor=none;fontSize=12;" connectable="0" vertex="1" parent="eK2f0mzsQCClxwwo3MAG-62">
          <mxGeometry x="1" relative="1" as="geometry">
            <mxPoint x="-7" y="21" as="offset" />
          </mxGeometry>
        </mxCell>
        <mxCell id="eK2f0mzsQCClxwwo3MAG-66" value="" style="endArrow=none;shadow=0;strokeWidth=1;rounded=0;curved=0;endFill=0;edgeStyle=elbowEdgeStyle;elbow=vertical;" edge="1" parent="WIyWlLk6GJQsqaUBKTNV-1">
          <mxGeometry x="0.5" y="41" relative="1" as="geometry">
            <mxPoint x="310" y="620" as="sourcePoint" />
            <mxPoint x="600" y="470" as="targetPoint" />
            <mxPoint x="-40" y="32" as="offset" />
            <Array as="points">
              <mxPoint x="470" y="580" />
            </Array>
          </mxGeometry>
        </mxCell>
        <mxCell id="eK2f0mzsQCClxwwo3MAG-67" value="0..1" style="resizable=0;align=left;verticalAlign=bottom;labelBackgroundColor=none;fontSize=12;" connectable="0" vertex="1" parent="eK2f0mzsQCClxwwo3MAG-66">
          <mxGeometry x="-1" relative="1" as="geometry">
            <mxPoint y="4" as="offset" />
          </mxGeometry>
        </mxCell>
        <mxCell id="eK2f0mzsQCClxwwo3MAG-68" value="1" style="resizable=0;align=right;verticalAlign=bottom;labelBackgroundColor=none;fontSize=12;" connectable="0" vertex="1" parent="eK2f0mzsQCClxwwo3MAG-66">
          <mxGeometry x="1" relative="1" as="geometry">
            <mxPoint x="-7" y="21" as="offset" />
          </mxGeometry>
        </mxCell>
        <mxCell id="eK2f0mzsQCClxwwo3MAG-69" value="" style="endArrow=none;shadow=0;strokeWidth=1;rounded=0;curved=0;endFill=0;edgeStyle=elbowEdgeStyle;elbow=vertical;exitX=0.2;exitY=-0.05;exitDx=0;exitDy=0;exitPerimeter=0;" edge="1" parent="WIyWlLk6GJQsqaUBKTNV-1" source="eK2f0mzsQCClxwwo3MAG-48">
          <mxGeometry x="0.5" y="41" relative="1" as="geometry">
            <mxPoint x="345" y="630" as="sourcePoint" />
            <mxPoint x="570" y="470" as="targetPoint" />
            <mxPoint x="-40" y="32" as="offset" />
            <Array as="points">
              <mxPoint x="390" y="570" />
            </Array>
          </mxGeometry>
        </mxCell>
        <mxCell id="eK2f0mzsQCClxwwo3MAG-70" value="0..1" style="resizable=0;align=left;verticalAlign=bottom;labelBackgroundColor=none;fontSize=12;" connectable="0" vertex="1" parent="eK2f0mzsQCClxwwo3MAG-69">
          <mxGeometry x="-1" relative="1" as="geometry">
            <mxPoint y="4" as="offset" />
          </mxGeometry>
        </mxCell>
        <mxCell id="eK2f0mzsQCClxwwo3MAG-71" value="1" style="resizable=0;align=right;verticalAlign=bottom;labelBackgroundColor=none;fontSize=12;" connectable="0" vertex="1" parent="eK2f0mzsQCClxwwo3MAG-69">
          <mxGeometry x="1" relative="1" as="geometry">
            <mxPoint x="-7" y="21" as="offset" />
          </mxGeometry>
        </mxCell>
        <mxCell id="eK2f0mzsQCClxwwo3MAG-72" value="" style="endArrow=none;shadow=0;strokeWidth=1;rounded=0;curved=0;endFill=0;edgeStyle=elbowEdgeStyle;elbow=vertical;exitX=0.5;exitY=0;exitDx=0;exitDy=0;" edge="1" parent="WIyWlLk6GJQsqaUBKTNV-1" source="eK2f0mzsQCClxwwo3MAG-52">
          <mxGeometry x="0.5" y="41" relative="1" as="geometry">
            <mxPoint x="215" y="630" as="sourcePoint" />
            <mxPoint x="530" y="470" as="targetPoint" />
            <mxPoint x="-40" y="32" as="offset" />
            <Array as="points">
              <mxPoint x="400" y="510" />
            </Array>
          </mxGeometry>
        </mxCell>
        <mxCell id="eK2f0mzsQCClxwwo3MAG-73" value="0..1" style="resizable=0;align=left;verticalAlign=bottom;labelBackgroundColor=none;fontSize=12;" connectable="0" vertex="1" parent="eK2f0mzsQCClxwwo3MAG-72">
          <mxGeometry x="-1" relative="1" as="geometry">
            <mxPoint y="4" as="offset" />
          </mxGeometry>
        </mxCell>
        <mxCell id="eK2f0mzsQCClxwwo3MAG-74" value="1" style="resizable=0;align=right;verticalAlign=bottom;labelBackgroundColor=none;fontSize=12;" connectable="0" vertex="1" parent="eK2f0mzsQCClxwwo3MAG-72">
          <mxGeometry x="1" relative="1" as="geometry">
            <mxPoint x="-7" y="21" as="offset" />
          </mxGeometry>
        </mxCell>
        <mxCell id="eK2f0mzsQCClxwwo3MAG-75" value="" style="endArrow=none;shadow=0;strokeWidth=1;rounded=0;curved=0;endFill=0;edgeStyle=elbowEdgeStyle;elbow=vertical;exitX=0.25;exitY=0;exitDx=0;exitDy=0;entryX=0.05;entryY=1.033;entryDx=0;entryDy=0;entryPerimeter=0;" edge="1" parent="WIyWlLk6GJQsqaUBKTNV-1" source="eK2f0mzsQCClxwwo3MAG-52" target="eK2f0mzsQCClxwwo3MAG-11">
          <mxGeometry x="0.5" y="41" relative="1" as="geometry">
            <mxPoint x="161" y="520" as="sourcePoint" />
            <mxPoint x="370" y="320" as="targetPoint" />
            <mxPoint x="-40" y="32" as="offset" />
            <Array as="points">
              <mxPoint x="270" y="460" />
            </Array>
          </mxGeometry>
        </mxCell>
        <mxCell id="eK2f0mzsQCClxwwo3MAG-76" value="0..1" style="resizable=0;align=left;verticalAlign=bottom;labelBackgroundColor=none;fontSize=12;" connectable="0" vertex="1" parent="eK2f0mzsQCClxwwo3MAG-75">
          <mxGeometry x="-1" relative="1" as="geometry">
            <mxPoint y="4" as="offset" />
          </mxGeometry>
        </mxCell>
        <mxCell id="eK2f0mzsQCClxwwo3MAG-77" value="1" style="resizable=0;align=right;verticalAlign=bottom;labelBackgroundColor=none;fontSize=12;" connectable="0" vertex="1" parent="eK2f0mzsQCClxwwo3MAG-75">
          <mxGeometry x="1" relative="1" as="geometry">
            <mxPoint x="-7" y="21" as="offset" />
          </mxGeometry>
        </mxCell>
        <mxCell id="eK2f0mzsQCClxwwo3MAG-78" value="" style="endArrow=none;shadow=0;strokeWidth=1;rounded=0;curved=0;endFill=0;edgeStyle=elbowEdgeStyle;elbow=vertical;exitX=0.5;exitY=0;exitDx=0;exitDy=0;entryX=0.18;entryY=1.033;entryDx=0;entryDy=0;entryPerimeter=0;" edge="1" parent="WIyWlLk6GJQsqaUBKTNV-1" source="eK2f0mzsQCClxwwo3MAG-48" target="eK2f0mzsQCClxwwo3MAG-11">
          <mxGeometry x="0.5" y="41" relative="1" as="geometry">
            <mxPoint x="171" y="530" as="sourcePoint" />
            <mxPoint x="363" y="331" as="targetPoint" />
            <mxPoint x="-40" y="32" as="offset" />
            <Array as="points">
              <mxPoint x="280" y="470" />
            </Array>
          </mxGeometry>
        </mxCell>
        <mxCell id="eK2f0mzsQCClxwwo3MAG-79" value="0..1" style="resizable=0;align=left;verticalAlign=bottom;labelBackgroundColor=none;fontSize=12;" connectable="0" vertex="1" parent="eK2f0mzsQCClxwwo3MAG-78">
          <mxGeometry x="-1" relative="1" as="geometry">
            <mxPoint y="4" as="offset" />
          </mxGeometry>
        </mxCell>
        <mxCell id="eK2f0mzsQCClxwwo3MAG-80" value="1" style="resizable=0;align=right;verticalAlign=bottom;labelBackgroundColor=none;fontSize=12;" connectable="0" vertex="1" parent="eK2f0mzsQCClxwwo3MAG-78">
          <mxGeometry x="1" relative="1" as="geometry">
            <mxPoint x="-7" y="21" as="offset" />
          </mxGeometry>
        </mxCell>
        <mxCell id="eK2f0mzsQCClxwwo3MAG-81" value="3..*" style="resizable=0;align=left;verticalAlign=bottom;labelBackgroundColor=none;fontSize=12;" connectable="0" vertex="1" parent="WIyWlLk6GJQsqaUBKTNV-1">
          <mxGeometry x="342" y="93" as="geometry">
            <mxPoint y="6" as="offset" />
          </mxGeometry>
        </mxCell>
        <mxCell id="eK2f0mzsQCClxwwo3MAG-83" value="" style="endArrow=none;shadow=0;strokeWidth=1;rounded=0;curved=0;endFill=0;edgeStyle=elbowEdgeStyle;elbow=vertical;exitX=0.09;exitY=0;exitDx=0;exitDy=0;entryX=0.347;entryY=0.967;entryDx=0;entryDy=0;entryPerimeter=0;exitPerimeter=0;" edge="1" parent="WIyWlLk6GJQsqaUBKTNV-1" source="eK2f0mzsQCClxwwo3MAG-56" target="eK2f0mzsQCClxwwo3MAG-11">
          <mxGeometry x="0.5" y="41" relative="1" as="geometry">
            <mxPoint x="243" y="630" as="sourcePoint" />
            <mxPoint x="351" y="320" as="targetPoint" />
            <mxPoint x="-40" y="32" as="offset" />
            <Array as="points">
              <mxPoint x="290" y="480" />
            </Array>
          </mxGeometry>
        </mxCell>
        <mxCell id="eK2f0mzsQCClxwwo3MAG-84" value="0..1" style="resizable=0;align=left;verticalAlign=bottom;labelBackgroundColor=none;fontSize=12;" connectable="0" vertex="1" parent="eK2f0mzsQCClxwwo3MAG-83">
          <mxGeometry x="-1" relative="1" as="geometry">
            <mxPoint y="4" as="offset" />
          </mxGeometry>
        </mxCell>
        <mxCell id="eK2f0mzsQCClxwwo3MAG-85" value="1" style="resizable=0;align=right;verticalAlign=bottom;labelBackgroundColor=none;fontSize=12;" connectable="0" vertex="1" parent="eK2f0mzsQCClxwwo3MAG-83">
          <mxGeometry x="1" relative="1" as="geometry">
            <mxPoint x="-7" y="21" as="offset" />
          </mxGeometry>
        </mxCell>
        <mxCell id="eK2f0mzsQCClxwwo3MAG-86" value="" style="endArrow=none;shadow=0;strokeWidth=1;rounded=0;curved=0;endFill=0;edgeStyle=elbowEdgeStyle;elbow=vertical;exitX=1;exitY=0.25;exitDx=0;exitDy=0;entryX=0.25;entryY=1;entryDx=0;entryDy=0;" edge="1" parent="WIyWlLk6GJQsqaUBKTNV-1" source="eK2f0mzsQCClxwwo3MAG-52" target="eK2f0mzsQCClxwwo3MAG-12">
          <mxGeometry x="0.5" y="41" relative="1" as="geometry">
            <mxPoint x="100" y="540" as="sourcePoint" />
            <mxPoint x="540" y="480" as="targetPoint" />
            <mxPoint x="-40" y="32" as="offset" />
            <Array as="points">
              <mxPoint x="280" y="540" />
            </Array>
          </mxGeometry>
        </mxCell>
        <mxCell id="eK2f0mzsQCClxwwo3MAG-87" value="0..1" style="resizable=0;align=left;verticalAlign=bottom;labelBackgroundColor=none;fontSize=12;" connectable="0" vertex="1" parent="eK2f0mzsQCClxwwo3MAG-86">
          <mxGeometry x="-1" relative="1" as="geometry">
            <mxPoint y="4" as="offset" />
          </mxGeometry>
        </mxCell>
        <mxCell id="eK2f0mzsQCClxwwo3MAG-88" value="1" style="resizable=0;align=right;verticalAlign=bottom;labelBackgroundColor=none;fontSize=12;" connectable="0" vertex="1" parent="eK2f0mzsQCClxwwo3MAG-86">
          <mxGeometry x="1" relative="1" as="geometry">
            <mxPoint x="-3" y="27" as="offset" />
          </mxGeometry>
        </mxCell>
        <mxCell id="eK2f0mzsQCClxwwo3MAG-89" value="" style="endArrow=none;shadow=0;strokeWidth=1;rounded=0;curved=0;endFill=0;edgeStyle=elbowEdgeStyle;elbow=vertical;exitX=0.75;exitY=0;exitDx=0;exitDy=0;entryX=0.5;entryY=1;entryDx=0;entryDy=0;" edge="1" parent="WIyWlLk6GJQsqaUBKTNV-1" source="eK2f0mzsQCClxwwo3MAG-48" target="eK2f0mzsQCClxwwo3MAG-12">
          <mxGeometry x="0.5" y="41" relative="1" as="geometry">
            <mxPoint x="160" y="550" as="sourcePoint" />
            <mxPoint x="413" y="510" as="targetPoint" />
            <mxPoint x="-40" y="32" as="offset" />
            <Array as="points">
              <mxPoint x="290" y="550" />
            </Array>
          </mxGeometry>
        </mxCell>
        <mxCell id="eK2f0mzsQCClxwwo3MAG-90" value="0..1" style="resizable=0;align=left;verticalAlign=bottom;labelBackgroundColor=none;fontSize=12;" connectable="0" vertex="1" parent="eK2f0mzsQCClxwwo3MAG-89">
          <mxGeometry x="-1" relative="1" as="geometry">
            <mxPoint y="4" as="offset" />
          </mxGeometry>
        </mxCell>
        <mxCell id="eK2f0mzsQCClxwwo3MAG-91" value="1" style="resizable=0;align=right;verticalAlign=bottom;labelBackgroundColor=none;fontSize=12;" connectable="0" vertex="1" parent="eK2f0mzsQCClxwwo3MAG-89">
          <mxGeometry x="1" relative="1" as="geometry">
            <mxPoint x="-3" y="27" as="offset" />
          </mxGeometry>
        </mxCell>
        <mxCell id="eK2f0mzsQCClxwwo3MAG-92" value="" style="endArrow=none;shadow=0;strokeWidth=1;rounded=0;curved=0;endFill=0;edgeStyle=elbowEdgeStyle;elbow=vertical;entryX=0.75;entryY=1;entryDx=0;entryDy=0;exitX=0.75;exitY=0;exitDx=0;exitDy=0;" edge="1" parent="WIyWlLk6GJQsqaUBKTNV-1" source="eK2f0mzsQCClxwwo3MAG-56" target="eK2f0mzsQCClxwwo3MAG-12">
          <mxGeometry x="0.5" y="41" relative="1" as="geometry">
            <mxPoint x="530" y="540" as="sourcePoint" />
            <mxPoint x="446" y="510" as="targetPoint" />
            <mxPoint x="-40" y="32" as="offset" />
            <Array as="points">
              <mxPoint x="300" y="560" />
            </Array>
          </mxGeometry>
        </mxCell>
        <mxCell id="eK2f0mzsQCClxwwo3MAG-93" value="0..1" style="resizable=0;align=left;verticalAlign=bottom;labelBackgroundColor=none;fontSize=12;" connectable="0" vertex="1" parent="eK2f0mzsQCClxwwo3MAG-92">
          <mxGeometry x="-1" relative="1" as="geometry">
            <mxPoint y="4" as="offset" />
          </mxGeometry>
        </mxCell>
        <mxCell id="eK2f0mzsQCClxwwo3MAG-94" value="1" style="resizable=0;align=right;verticalAlign=bottom;labelBackgroundColor=none;fontSize=12;" connectable="0" vertex="1" parent="eK2f0mzsQCClxwwo3MAG-92">
          <mxGeometry x="1" relative="1" as="geometry">
            <mxPoint x="-3" y="27" as="offset" />
          </mxGeometry>
        </mxCell>
      </root>
    </mxGraphModel>
  </diagram>
</mxfile>
